%FSLAX25Y25*%
%MOIN*%
G70*
G01*
G75*
G04 Layer_Color=32896*
%ADD10C,0.00605*%
%ADD11R,0.02756X0.03543*%
%ADD12R,0.05000X0.06000*%
%ADD13R,0.06000X0.05000*%
%ADD14R,0.06000X0.06000*%
%ADD15R,0.06496X0.00984*%
%ADD16R,0.06496X0.00984*%
%ADD17R,0.03543X0.02756*%
%ADD18C,0.02000*%
%ADD19R,0.02756X0.01575*%
%ADD20R,0.15000X0.08500*%
%ADD21R,0.01378X0.05512*%
%ADD22R,0.07087X0.06299*%
%ADD23R,0.03347X0.05118*%
%ADD24C,0.00800*%
%ADD25C,0.02000*%
%ADD26C,0.00400*%
%ADD27C,0.00500*%
%ADD28C,0.00425*%
%ADD29C,0.00600*%
%ADD30C,0.03500*%
%ADD31R,0.05200X0.05200*%
%ADD32C,0.05200*%
%ADD33C,0.13000*%
%ADD34C,0.03937*%
G04:AMPARAMS|DCode=35|XSize=78.74mil|YSize=78.74mil|CornerRadius=19.69mil|HoleSize=0mil|Usage=FLASHONLY|Rotation=0.000|XOffset=0mil|YOffset=0mil|HoleType=Round|Shape=RoundedRectangle|*
%AMROUNDEDRECTD35*
21,1,0.07874,0.03937,0,0,0.0*
21,1,0.03937,0.07874,0,0,0.0*
1,1,0.03937,0.01969,-0.01969*
1,1,0.03937,-0.01969,-0.01969*
1,1,0.03937,-0.01969,0.01969*
1,1,0.03937,0.01969,0.01969*
%
%ADD35ROUNDEDRECTD35*%
%ADD36R,0.03937X0.03937*%
%ADD37R,0.02000X0.02000*%
%ADD38R,0.05200X0.05200*%
%ADD39R,0.03740X0.02362*%
%ADD40C,0.04000*%
%ADD41P,0.02165X8X22.5*%
%ADD42C,0.03000*%
%ADD43R,0.02362X0.03740*%
%ADD44C,0.05000*%
%ADD45C,0.07400*%
%ADD46C,0.05906*%
%ADD47P,0.08352X4X298.0*%
%ADD48C,0.14000*%
%ADD49P,0.08352X4X152.0*%
%ADD50R,0.05906X0.05906*%
%ADD51C,0.02200*%
%ADD52C,0.01800*%
%ADD53C,0.04000*%
%ADD54C,0.04200*%
%ADD55C,0.02800*%
%ADD56C,0.05800*%
G04:AMPARAMS|DCode=57|XSize=68mil|YSize=68mil|CornerRadius=0mil|HoleSize=0mil|Usage=FLASHONLY|Rotation=0.000|XOffset=0mil|YOffset=0mil|HoleType=Round|Shape=Relief|Width=10mil|Gap=10mil|Entries=4|*
%AMTHD57*
7,0,0,0.06800,0.04800,0.01000,45*
%
%ADD57THD57*%
%ADD58C,0.11600*%
%ADD59C,0.04913*%
%ADD60C,0.07315*%
G04:AMPARAMS|DCode=61|XSize=20mil|YSize=20mil|CornerRadius=0mil|HoleSize=0mil|Usage=FLASHONLY|Rotation=0.000|XOffset=0mil|YOffset=0mil|HoleType=Round|Shape=Relief|Width=4mil|Gap=3mil|Entries=4|*
%AMTHD61*
7,0,0,0.02000,0.01400,0.00400,45*
%
%ADD61THD61*%
G04:AMPARAMS|DCode=62|XSize=40mil|YSize=40mil|CornerRadius=0mil|HoleSize=0mil|Usage=FLASHONLY|Rotation=0.000|XOffset=0mil|YOffset=0mil|HoleType=Round|Shape=Relief|Width=6mil|Gap=8mil|Entries=4|*
%AMTHD62*
7,0,0,0.04000,0.02400,0.00600,45*
%
%ADD62THD62*%
G04:AMPARAMS|DCode=63|XSize=52mil|YSize=52mil|CornerRadius=0mil|HoleSize=0mil|Usage=FLASHONLY|Rotation=0.000|XOffset=0mil|YOffset=0mil|HoleType=Round|Shape=Relief|Width=6mil|Gap=8mil|Entries=4|*
%AMTHD63*
7,0,0,0.05200,0.03600,0.00600,45*
%
%ADD63THD63*%
%ADD64C,0.04500*%
%ADD65C,0.08200*%
%ADD66C,0.05500*%
%ADD67C,0.14800*%
%ADD68C,0.05543*%
%ADD69C,0.03200*%
%ADD70C,0.00480*%
%ADD71C,0.00390*%
%ADD72R,0.07874X0.08661*%
%ADD73R,0.06000X0.06000*%
%ADD74C,0.02500*%
%ADD75C,0.01500*%
G04:AMPARAMS|DCode=76|XSize=98mil|YSize=98mil|CornerRadius=0mil|HoleSize=0mil|Usage=FLASHONLY|Rotation=0.000|XOffset=0mil|YOffset=0mil|HoleType=Round|Shape=Relief|Width=10mil|Gap=10mil|Entries=4|*
%AMTHD76*
7,0,0,0.09800,0.07800,0.01000,45*
%
%ADD76THD76*%
%ADD77R,0.09252X0.12205*%
%ADD78R,0.06299X0.06693*%
%ADD79R,0.06299X0.06693*%
%ADD80R,0.07874X0.08661*%
%ADD81C,0.01000*%
%ADD82C,0.00375*%
%ADD83R,0.02000X0.01000*%
%ADD84R,0.07000X0.19000*%
%ADD85R,0.01000X0.13760*%
%ADD86R,0.05000X0.14260*%
%ADD87R,0.02107X0.03100*%
%ADD88R,0.06000X0.02760*%
%ADD89R,0.00500X0.01500*%
%ADD90R,0.01500X0.03000*%
%ADD91R,0.07500X0.26000*%
%ADD92R,0.02362X0.03740*%
%ADD93R,0.02362X0.03740*%
%ADD94R,0.02362X0.03740*%
%ADD95R,0.02362X0.03740*%
%ADD96R,0.03740X0.02362*%
%ADD97R,0.03740X0.02362*%
%ADD98R,0.06000X0.03500*%
%ADD99R,0.02000X0.01500*%
%ADD100R,0.05000X0.15000*%
%ADD101R,0.01000X0.14000*%
%ADD102R,0.02000X0.02000*%
%ADD103C,0.00787*%
%ADD104C,0.00984*%
%ADD105C,0.01200*%
%ADD106C,0.00394*%
%ADD107R,0.03156X0.03943*%
%ADD108R,0.05400X0.06400*%
%ADD109R,0.06400X0.05400*%
%ADD110R,0.06400X0.06400*%
%ADD111R,0.06896X0.01384*%
%ADD112R,0.06896X0.01384*%
%ADD113R,0.03943X0.03156*%
%ADD114C,0.02400*%
%ADD115R,0.03156X0.01975*%
%ADD116R,0.15400X0.08900*%
%ADD117R,0.01778X0.05912*%
%ADD118R,0.07487X0.06699*%
%ADD119R,0.03747X0.05518*%
%ADD120C,0.03900*%
%ADD121R,0.05600X0.05600*%
%ADD122C,0.05600*%
%ADD123C,0.04337*%
G04:AMPARAMS|DCode=124|XSize=82.74mil|YSize=82.74mil|CornerRadius=21.69mil|HoleSize=0mil|Usage=FLASHONLY|Rotation=0.000|XOffset=0mil|YOffset=0mil|HoleType=Round|Shape=RoundedRectangle|*
%AMROUNDEDRECTD124*
21,1,0.08274,0.03937,0,0,0.0*
21,1,0.03937,0.08274,0,0,0.0*
1,1,0.04337,0.01969,-0.01969*
1,1,0.04337,-0.01969,-0.01969*
1,1,0.04337,-0.01969,0.01969*
1,1,0.04337,0.01969,0.01969*
%
%ADD124ROUNDEDRECTD124*%
%ADD125R,0.04337X0.04337*%
%ADD126R,0.02400X0.02400*%
%ADD127R,0.05600X0.05600*%
%ADD128R,0.04140X0.02762*%
%ADD129C,0.04400*%
%ADD130P,0.02598X8X22.5*%
%ADD131C,0.03400*%
%ADD132R,0.02762X0.04140*%
%ADD133C,0.05400*%
%ADD134C,0.07800*%
%ADD135C,0.06306*%
%ADD136P,0.08917X4X298.0*%
%ADD137C,0.14400*%
%ADD138P,0.08917X4X152.0*%
%ADD139R,0.06306X0.06306*%
%ADD140C,0.02600*%
%ADD141R,0.08274X0.09061*%
%ADD142R,0.06400X0.06400*%
%ADD143R,0.09652X0.12605*%
%ADD144R,0.06699X0.07093*%
%ADD145R,0.06699X0.07093*%
%ADD146R,0.08274X0.09061*%
%ADD147R,0.02400X0.02400*%
D29*
X281528Y183300D02*
X282728D01*
X281628Y175400D02*
X282928D01*
X177390Y188862D02*
X177981Y188272D01*
X177390Y186598D02*
Y188862D01*
X176800Y188272D02*
X177390Y188862D01*
X270756Y187784D02*
X271347Y188374D01*
Y186110D02*
Y188374D01*
X271937Y187784D01*
X154029Y187701D02*
X153529Y188200D01*
Y189200D01*
X154029Y189700D01*
X156028D01*
X156528Y189200D01*
Y188200D01*
X156028Y187701D01*
X153529Y184702D02*
X154029Y185701D01*
X155028Y186701D01*
X156028D01*
X156528Y186201D01*
Y185201D01*
X156028Y184702D01*
X155528D01*
X155028Y185201D01*
Y186701D01*
X327627Y179199D02*
X328127Y178700D01*
Y177700D01*
X327627Y177200D01*
X325628D01*
X325128Y177700D01*
Y178700D01*
X325628Y179199D01*
X327627Y180199D02*
X328127Y180699D01*
Y181699D01*
X327627Y182198D01*
X327127D01*
X326627Y181699D01*
X326128Y182198D01*
X325628D01*
X325128Y181699D01*
Y180699D01*
X325628Y180199D01*
X326128D01*
X326627Y180699D01*
X327127Y180199D01*
X327627D01*
X326627Y180699D02*
Y181699D01*
X171528Y204000D02*
Y206999D01*
X170028D01*
X169529Y206499D01*
Y205500D01*
X170028Y205000D01*
X171528D01*
X170528D02*
X169529Y204000D01*
X166530Y206999D02*
X168529D01*
Y205500D01*
X167529Y205999D01*
X167030D01*
X166530Y205500D01*
Y204500D01*
X167030Y204000D01*
X168029D01*
X168529Y204500D01*
X264527Y240001D02*
X264028Y239501D01*
X263028D01*
X262528Y240001D01*
Y242000D01*
X263028Y242500D01*
X264028D01*
X264527Y242000D01*
X265527Y240001D02*
X266027Y239501D01*
X267027D01*
X267526Y240001D01*
Y240501D01*
X267027Y241001D01*
X266527D01*
X267027D01*
X267526Y241500D01*
Y242000D01*
X267027Y242500D01*
X266027D01*
X265527Y242000D01*
X278029Y125499D02*
X278528Y125999D01*
X279528D01*
X280028Y125499D01*
Y123500D01*
X279528Y123000D01*
X278528D01*
X278029Y123500D01*
X275030Y123000D02*
X277029D01*
X275030Y124999D01*
Y125499D01*
X275530Y125999D01*
X276529D01*
X277029Y125499D01*
X272031Y125999D02*
X273030Y125499D01*
X274030Y124499D01*
Y123500D01*
X273530Y123000D01*
X272530D01*
X272031Y123500D01*
Y124000D01*
X272530Y124499D01*
X274030D01*
X258029Y188499D02*
X258528Y188999D01*
X259528D01*
X260028Y188499D01*
Y186500D01*
X259528Y186000D01*
X258528D01*
X258029Y186500D01*
X255030Y186000D02*
X257029D01*
X255030Y187999D01*
Y188499D01*
X255529Y188999D01*
X256529D01*
X257029Y188499D01*
X254030Y186000D02*
X253030D01*
X253530D01*
Y188999D01*
X254030Y188499D01*
X247029Y256999D02*
X247529Y257499D01*
X248528D01*
X249028Y256999D01*
Y255000D01*
X248528Y254500D01*
X247529D01*
X247029Y255000D01*
X246029Y254500D02*
X245029D01*
X245529D01*
Y257499D01*
X246029Y256999D01*
X243530D02*
X243030Y257499D01*
X242030D01*
X241530Y256999D01*
Y256499D01*
X242030Y255999D01*
X242530D01*
X242030D01*
X241530Y255500D01*
Y255000D01*
X242030Y254500D01*
X243030D01*
X243530Y255000D01*
X227827Y228499D02*
X228327Y227999D01*
Y227000D01*
X227827Y226500D01*
X225828D01*
X225328Y227000D01*
Y227999D01*
X225828Y228499D01*
X225328Y230998D02*
X228327D01*
X226828Y229499D01*
Y231498D01*
X262529Y194999D02*
X263029Y195499D01*
X264028D01*
X264528Y194999D01*
Y193000D01*
X264028Y192500D01*
X263029D01*
X262529Y193000D01*
X259530Y192500D02*
X261529D01*
X259530Y194499D01*
Y194999D01*
X260030Y195499D01*
X261029D01*
X261529Y194999D01*
X258530D02*
X258030Y195499D01*
X257030D01*
X256531Y194999D01*
Y193000D01*
X257030Y192500D01*
X258030D01*
X258530Y193000D01*
Y194999D01*
X231029Y236899D02*
X231528Y237399D01*
X232528D01*
X233028Y236899D01*
Y234900D01*
X232528Y234400D01*
X231528D01*
X231029Y234900D01*
X230029Y234400D02*
X229029D01*
X229529D01*
Y237399D01*
X230029Y236899D01*
X227530Y237399D02*
X225530D01*
Y236899D01*
X227530Y234900D01*
Y234400D01*
X230529Y244499D02*
X231029Y244999D01*
X232028D01*
X232528Y244499D01*
Y242500D01*
X232028Y242000D01*
X231029D01*
X230529Y242500D01*
X229529Y242000D02*
X228529D01*
X229029D01*
Y244999D01*
X229529Y244499D01*
X225530Y242000D02*
Y244999D01*
X227030Y243499D01*
X225030D01*
X279927Y170101D02*
X279428Y169601D01*
X278428D01*
X277928Y170101D01*
Y172100D01*
X278428Y172600D01*
X279428D01*
X279927Y172100D01*
X282926Y172600D02*
X280927D01*
X282926Y170601D01*
Y170101D01*
X282427Y169601D01*
X281427D01*
X280927Y170101D01*
X285426Y172600D02*
Y169601D01*
X283926Y171100D01*
X285925D01*
X300827Y169401D02*
X300327Y168901D01*
X299328D01*
X298828Y169401D01*
Y171400D01*
X299328Y171900D01*
X300327D01*
X300827Y171400D01*
X303826Y171900D02*
X301827D01*
X303826Y169901D01*
Y169401D01*
X303327Y168901D01*
X302327D01*
X301827Y169401D01*
X306825Y168901D02*
X304826D01*
Y170401D01*
X305826Y169901D01*
X306326D01*
X306825Y170401D01*
Y171400D01*
X306326Y171900D01*
X305326D01*
X304826Y171400D01*
X305029Y249999D02*
X305528Y250499D01*
X306528D01*
X307028Y249999D01*
Y248000D01*
X306528Y247500D01*
X305528D01*
X305029Y248000D01*
X304029Y247500D02*
X303029D01*
X303529D01*
Y250499D01*
X304029Y249999D01*
X301530Y248000D02*
X301030Y247500D01*
X300030D01*
X299530Y248000D01*
Y249999D01*
X300030Y250499D01*
X301030D01*
X301530Y249999D01*
Y249499D01*
X301030Y249000D01*
X299530D01*
X285400Y249999D02*
X285900Y250499D01*
X286900D01*
X287400Y249999D01*
Y248000D01*
X286900Y247500D01*
X285900D01*
X285400Y248000D01*
X284401Y247500D02*
X283401D01*
X283901D01*
Y250499D01*
X284401Y249999D01*
X281901D02*
X281401Y250499D01*
X280402D01*
X279902Y249999D01*
Y249499D01*
X280402Y249000D01*
X279902Y248500D01*
Y248000D01*
X280402Y247500D01*
X281401D01*
X281901Y248000D01*
Y248500D01*
X281401Y249000D01*
X281901Y249499D01*
Y249999D01*
X281401Y249000D02*
X280402D01*
X210529Y171499D02*
X211029Y171999D01*
X212028D01*
X212528Y171499D01*
Y169500D01*
X212028Y169000D01*
X211029D01*
X210529Y169500D01*
X207530Y169000D02*
X209529D01*
X207530Y170999D01*
Y171499D01*
X208030Y171999D01*
X209029D01*
X209529Y171499D01*
X206530D02*
X206030Y171999D01*
X205030D01*
X204531Y171499D01*
Y170999D01*
X205030Y170500D01*
X205530D01*
X205030D01*
X204531Y170000D01*
Y169500D01*
X205030Y169000D01*
X206030D01*
X206530Y169500D01*
X185929Y171499D02*
X186428Y171999D01*
X187428D01*
X187928Y171499D01*
Y169500D01*
X187428Y169000D01*
X186428D01*
X185929Y169500D01*
X182930Y169000D02*
X184929D01*
X182930Y170999D01*
Y171499D01*
X183430Y171999D01*
X184429D01*
X184929Y171499D01*
X179931Y169000D02*
X181930D01*
X179931Y170999D01*
Y171499D01*
X180430Y171999D01*
X181430D01*
X181930Y171499D01*
X174629Y240899D02*
X175128Y241399D01*
X176128D01*
X176628Y240899D01*
Y238900D01*
X176128Y238400D01*
X175128D01*
X174629Y238900D01*
X173629Y238400D02*
X172629D01*
X173129D01*
Y241399D01*
X173629Y240899D01*
X169130Y241399D02*
X171130D01*
Y239899D01*
X170130Y240399D01*
X169630D01*
X169130Y239899D01*
Y238900D01*
X169630Y238400D01*
X170630D01*
X171130Y238900D01*
X220329Y241901D02*
X219829Y242401D01*
Y243400D01*
X220329Y243900D01*
X222328D01*
X222828Y243400D01*
Y242401D01*
X222328Y241901D01*
X222828Y240901D02*
Y239901D01*
Y240401D01*
X219829D01*
X220329Y240901D01*
X219829Y236402D02*
X220329Y237402D01*
X221328Y238402D01*
X222328D01*
X222828Y237902D01*
Y236902D01*
X222328Y236402D01*
X221828D01*
X221328Y236902D01*
Y238402D01*
X270928Y209400D02*
Y212399D01*
X269428D01*
X268929Y211899D01*
Y210899D01*
X269428Y210400D01*
X270928D01*
X269928D02*
X268929Y209400D01*
X265930Y212399D02*
X266929Y211899D01*
X267929Y210899D01*
Y209900D01*
X267429Y209400D01*
X266429D01*
X265930Y209900D01*
Y210400D01*
X266429Y210899D01*
X267929D01*
X171528Y193500D02*
Y196499D01*
X170028D01*
X169529Y195999D01*
Y195000D01*
X170028Y194500D01*
X171528D01*
X170528D02*
X169529Y193500D01*
X168529Y196499D02*
X166530D01*
Y195999D01*
X168529Y194000D01*
Y193500D01*
X319528Y231499D02*
Y229000D01*
X319028Y228500D01*
X318028D01*
X317529Y229000D01*
Y231499D01*
X314530D02*
X315529Y230999D01*
X316529Y229999D01*
Y229000D01*
X316029Y228500D01*
X315030D01*
X314530Y229000D01*
Y229500D01*
X315030Y229999D01*
X316529D01*
X177528Y232999D02*
Y230500D01*
X177028Y230000D01*
X176029D01*
X175529Y230500D01*
Y232999D01*
X172530D02*
X174529D01*
Y231500D01*
X173529Y231999D01*
X173029D01*
X172530Y231500D01*
Y230500D01*
X173029Y230000D01*
X174029D01*
X174529Y230500D01*
X266729Y185401D02*
Y187400D01*
X268229D01*
X267729Y186400D01*
Y185900D01*
X268229Y185401D01*
X269228D01*
X269728Y185900D01*
Y186900D01*
X269228Y187400D01*
X269728Y182402D02*
Y184401D01*
X267729Y182402D01*
X267229D01*
X266729Y182901D01*
Y183901D01*
X267229Y184401D01*
Y181402D02*
X266729Y180902D01*
Y179902D01*
X267229Y179403D01*
X267729D01*
X268229Y179902D01*
Y180402D01*
Y179902D01*
X268728Y179403D01*
X269228D01*
X269728Y179902D01*
Y180902D01*
X269228Y181402D01*
X267628Y196800D02*
Y199799D01*
X266128D01*
X265629Y199299D01*
Y198300D01*
X266128Y197800D01*
X267628D01*
X266628D02*
X265629Y196800D01*
X264629Y199299D02*
X264129Y199799D01*
X263129D01*
X262630Y199299D01*
Y198799D01*
X263129Y198300D01*
X262630Y197800D01*
Y197300D01*
X263129Y196800D01*
X264129D01*
X264629Y197300D01*
Y197800D01*
X264129Y198300D01*
X264629Y198799D01*
Y199299D01*
X264129Y198300D02*
X263129D01*
X176028Y221099D02*
Y217500D01*
X174229D01*
X173629Y218100D01*
Y220499D01*
X174229Y221099D01*
X176028D01*
D103*
X173150Y204713D02*
Y206287D01*
X175906Y204713D02*
Y206287D01*
X173150Y194713D02*
Y196287D01*
X175906Y194713D02*
Y196287D01*
X284497Y245709D02*
X289811D01*
X275245D02*
Y245906D01*
X284497Y234291D02*
X289811D01*
X275245Y234094D02*
Y234291D01*
Y245906D02*
X289811D01*
X275245Y234094D02*
X289811D01*
X189597Y245609D02*
X194911D01*
X180345D02*
Y245806D01*
X189597Y234191D02*
X194911D01*
X180345Y233994D02*
Y234191D01*
Y245806D02*
X194911D01*
X180345Y233994D02*
X194911D01*
X201745Y173291D02*
X207059D01*
X216311Y173094D02*
Y173291D01*
X201745Y184709D02*
X207059D01*
X216311D02*
Y184906D01*
X201745Y173094D02*
X216311D01*
X201745Y184906D02*
X216311D01*
X186397Y184709D02*
X191711D01*
X177145D02*
Y184906D01*
X186397Y173291D02*
X191711D01*
X177145Y173094D02*
Y173291D01*
Y184906D02*
X191711D01*
X177145Y173094D02*
X191711D01*
X296145Y173791D02*
X301459D01*
X310711Y173594D02*
Y173791D01*
X296145Y173594D02*
X310711D01*
X269150Y202713D02*
Y204287D01*
X271906Y202713D02*
Y204287D01*
X296745Y234291D02*
X302059D01*
X311311Y234094D02*
Y234291D01*
X296745Y245709D02*
X302059D01*
X311311D02*
Y245906D01*
X296745Y234094D02*
X311311D01*
X296745Y245906D02*
X311311D01*
X269150Y192565D02*
Y194140D01*
X271906Y192565D02*
Y194140D01*
X201545Y234191D02*
X206859D01*
X216111Y233994D02*
Y234191D01*
X201545Y245609D02*
X206859D01*
X216111D02*
Y245806D01*
X201545Y233994D02*
X216111D01*
X201545Y245806D02*
X216111D01*
D104*
X295228Y172100D02*
G03*
X295228Y172100I-492J0D01*
G01*
X293650Y245905D02*
G03*
X293650Y245905I-492J0D01*
G01*
X198750Y245806D02*
G03*
X198750Y245806I-492J0D01*
G01*
X198890Y173094D02*
G03*
X198890Y173094I-492J0D01*
G01*
X195550Y184906D02*
G03*
X195550Y184906I-492J0D01*
G01*
X289728Y172200D02*
G03*
X289728Y172200I-492J0D01*
G01*
X293890Y234095D02*
G03*
X293890Y234095I-492J0D01*
G01*
X198690Y233995D02*
G03*
X198690Y233995I-492J0D01*
G01*
D105*
X223428Y225100D02*
Y225600D01*
X219628Y225100D02*
Y225600D01*
X244228Y189400D02*
X244728D01*
X244228Y185600D02*
X244728D01*
X288328Y122600D02*
X288828D01*
X288328Y126400D02*
X288828D01*
X234028Y248000D02*
Y253000D01*
X255028Y191500D02*
Y196500D01*
X255528Y234000D02*
Y239000D01*
X234028Y241000D02*
Y246000D01*
X257128Y240800D02*
Y241300D01*
X260928Y240800D02*
Y241300D01*
X322228Y178500D02*
Y179000D01*
X318428Y178500D02*
Y179000D01*
X162628Y183600D02*
Y184100D01*
X158828Y183600D02*
Y184100D01*
M02*
