%FSLAX25Y25*%
%MOIN*%
G70*
G01*
G75*
G04 Layer_Color=16711935*
%ADD10C,0.00605*%
%ADD11R,0.07087X0.06299*%
%ADD12C,0.02000*%
%ADD13R,0.01378X0.05512*%
%ADD14R,0.15000X0.08500*%
%ADD15R,0.02756X0.01575*%
%ADD16R,0.03543X0.02756*%
%ADD17R,0.06496X0.00984*%
%ADD18R,0.06496X0.00984*%
%ADD19R,0.06000X0.06000*%
%ADD20R,0.02756X0.03543*%
%ADD21R,0.05000X0.06000*%
%ADD22R,0.06000X0.05000*%
%ADD23C,0.02500*%
%ADD24C,0.02000*%
%ADD25C,0.00425*%
%ADD26C,0.00800*%
%ADD27C,0.00500*%
%ADD28C,0.00400*%
%ADD29C,0.00600*%
%ADD30C,0.05000*%
%ADD31R,0.05906X0.05906*%
%ADD32C,0.05906*%
%ADD33C,0.14000*%
%ADD34C,0.07400*%
%ADD35P,0.08352X4X152.0*%
%ADD36P,0.08352X4X298.0*%
%ADD37R,0.02362X0.03740*%
%ADD38C,0.03000*%
%ADD39C,0.04000*%
%ADD40P,0.02165X8X22.5*%
%ADD41R,0.03740X0.02362*%
%ADD42R,0.03937X0.03937*%
%ADD43C,0.03937*%
G04:AMPARAMS|DCode=44|XSize=78.74mil|YSize=78.74mil|CornerRadius=19.69mil|HoleSize=0mil|Usage=FLASHONLY|Rotation=0.000|XOffset=0mil|YOffset=0mil|HoleType=Round|Shape=RoundedRectangle|*
%AMROUNDEDRECTD44*
21,1,0.07874,0.03937,0,0,0.0*
21,1,0.03937,0.07874,0,0,0.0*
1,1,0.03937,0.01969,-0.01969*
1,1,0.03937,-0.01969,-0.01969*
1,1,0.03937,-0.01969,0.01969*
1,1,0.03937,0.01969,0.01969*
%
%ADD44ROUNDEDRECTD44*%
%ADD45C,0.03500*%
%ADD46R,0.05200X0.05200*%
%ADD47C,0.05200*%
%ADD48R,0.05200X0.05200*%
%ADD49R,0.02000X0.02000*%
%ADD50C,0.13000*%
%ADD51C,0.01800*%
%ADD52C,0.04000*%
%ADD53C,0.04500*%
%ADD54C,0.05543*%
%ADD55C,0.14800*%
%ADD56C,0.08200*%
%ADD57C,0.05500*%
G04:AMPARAMS|DCode=58|XSize=68mil|YSize=68mil|CornerRadius=0mil|HoleSize=0mil|Usage=FLASHONLY|Rotation=0.000|XOffset=0mil|YOffset=0mil|HoleType=Round|Shape=Relief|Width=10mil|Gap=10mil|Entries=4|*
%AMTHD58*
7,0,0,0.06800,0.04800,0.01000,45*
%
%ADD58THD58*%
%ADD59C,0.02800*%
G04:AMPARAMS|DCode=60|XSize=40mil|YSize=40mil|CornerRadius=0mil|HoleSize=0mil|Usage=FLASHONLY|Rotation=0.000|XOffset=0mil|YOffset=0mil|HoleType=Round|Shape=Relief|Width=6mil|Gap=8mil|Entries=4|*
%AMTHD60*
7,0,0,0.04000,0.02400,0.00600,45*
%
%ADD60THD60*%
G04:AMPARAMS|DCode=61|XSize=52mil|YSize=52mil|CornerRadius=0mil|HoleSize=0mil|Usage=FLASHONLY|Rotation=0.000|XOffset=0mil|YOffset=0mil|HoleType=Round|Shape=Relief|Width=6mil|Gap=8mil|Entries=4|*
%AMTHD61*
7,0,0,0.05200,0.03600,0.00600,45*
%
%ADD61THD61*%
G04:AMPARAMS|DCode=62|XSize=20mil|YSize=20mil|CornerRadius=0mil|HoleSize=0mil|Usage=FLASHONLY|Rotation=0.000|XOffset=0mil|YOffset=0mil|HoleType=Round|Shape=Relief|Width=4mil|Gap=3mil|Entries=4|*
%AMTHD62*
7,0,0,0.02000,0.01400,0.00400,45*
%
%ADD62THD62*%
%ADD63C,0.04913*%
%ADD64C,0.07315*%
%ADD65C,0.04200*%
%ADD66C,0.05800*%
%ADD67C,0.11600*%
%ADD68C,0.00480*%
%ADD69C,0.00390*%
%ADD70R,0.07874X0.08661*%
%ADD71R,0.06000X0.06000*%
%ADD72C,0.01500*%
G04:AMPARAMS|DCode=73|XSize=98mil|YSize=98mil|CornerRadius=0mil|HoleSize=0mil|Usage=FLASHONLY|Rotation=0.000|XOffset=0mil|YOffset=0mil|HoleType=Round|Shape=Relief|Width=10mil|Gap=10mil|Entries=4|*
%AMTHD73*
7,0,0,0.09800,0.07800,0.01000,45*
%
%ADD73THD73*%
%ADD74R,0.07874X0.08661*%
%ADD75R,0.09252X0.12205*%
%ADD76R,0.06299X0.06693*%
%ADD77R,0.06299X0.06693*%
%ADD78C,0.01000*%
%ADD79C,0.00375*%
%ADD80R,0.02000X0.01000*%
%ADD81R,0.07000X0.19000*%
%ADD82R,0.01000X0.14000*%
%ADD83R,0.05000X0.15000*%
%ADD84R,0.02000X0.01500*%
%ADD85R,0.06000X0.03500*%
%ADD86R,0.00500X0.01500*%
%ADD87R,0.01500X0.03000*%
%ADD88R,0.07500X0.26000*%
%ADD89R,0.02362X0.03740*%
%ADD90R,0.02362X0.03740*%
%ADD91R,0.02362X0.03740*%
%ADD92R,0.02362X0.03740*%
%ADD93R,0.03740X0.02362*%
%ADD94R,0.03740X0.02362*%
%ADD95R,0.06000X0.02760*%
%ADD96R,0.02107X0.03100*%
%ADD97R,0.05000X0.14260*%
%ADD98R,0.01000X0.13760*%
%ADD99R,0.02000X0.02000*%
%ADD100C,0.00984*%
%ADD101C,0.00787*%
%ADD102C,0.00394*%
%ADD103C,0.01200*%
%ADD104R,0.07487X0.06699*%
%ADD105C,0.02400*%
%ADD106R,0.01778X0.05912*%
%ADD107R,0.15400X0.08900*%
%ADD108R,0.03156X0.01975*%
%ADD109R,0.03943X0.03156*%
%ADD110R,0.06896X0.01384*%
%ADD111R,0.06896X0.01384*%
%ADD112R,0.06400X0.06400*%
%ADD113R,0.03156X0.03943*%
%ADD114R,0.05400X0.06400*%
%ADD115R,0.06400X0.05400*%
%ADD116C,0.05400*%
%ADD117R,0.06306X0.06306*%
%ADD118C,0.06306*%
%ADD119C,0.14400*%
%ADD120C,0.07800*%
%ADD121P,0.08917X4X152.0*%
%ADD122P,0.08917X4X298.0*%
%ADD123R,0.02762X0.04140*%
%ADD124C,0.03400*%
%ADD125C,0.04400*%
%ADD126P,0.02598X8X22.5*%
%ADD127R,0.04140X0.02762*%
%ADD128R,0.04337X0.04337*%
%ADD129C,0.04337*%
G04:AMPARAMS|DCode=130|XSize=82.74mil|YSize=82.74mil|CornerRadius=21.69mil|HoleSize=0mil|Usage=FLASHONLY|Rotation=0.000|XOffset=0mil|YOffset=0mil|HoleType=Round|Shape=RoundedRectangle|*
%AMROUNDEDRECTD130*
21,1,0.08274,0.03937,0,0,0.0*
21,1,0.03937,0.08274,0,0,0.0*
1,1,0.04337,0.01969,-0.01969*
1,1,0.04337,-0.01969,-0.01969*
1,1,0.04337,-0.01969,0.01969*
1,1,0.04337,0.01969,0.01969*
%
%ADD130ROUNDEDRECTD130*%
%ADD131C,0.03900*%
%ADD132R,0.05600X0.05600*%
%ADD133C,0.05600*%
%ADD134R,0.05600X0.05600*%
%ADD135R,0.02400X0.02400*%
%ADD136C,0.02200*%
%ADD137R,0.08274X0.09061*%
%ADD138R,0.09652X0.12605*%
%ADD139R,0.06699X0.07093*%
%ADD140R,0.06699X0.07093*%
%ADD141R,0.08274X0.09061*%
%ADD142R,0.06400X0.06400*%
%ADD143R,0.02400X0.02400*%
D12*
X283528Y256000D02*
D03*
X291528Y310800D02*
D03*
X283428Y299500D02*
D03*
X205528Y210000D02*
D03*
X311804Y257776D02*
D03*
X278028Y260000D02*
D03*
X277028Y305000D02*
D03*
D47*
X137728Y125800D02*
D03*
X147728D02*
D03*
X157728D02*
D03*
X199828Y117300D02*
D03*
X203528Y319500D02*
D03*
X213528D02*
D03*
X133528Y279500D02*
D03*
X143528D02*
D03*
X153528D02*
D03*
X163528D02*
D03*
X173528D02*
D03*
X183528D02*
D03*
X193528D02*
D03*
X203528D02*
D03*
Y269500D02*
D03*
X173528D02*
D03*
X163528D02*
D03*
X153528D02*
D03*
X143528D02*
D03*
X153528Y259500D02*
D03*
X163528D02*
D03*
X173528D02*
D03*
X203528D02*
D03*
X143528Y309500D02*
D03*
Y319500D02*
D03*
Y329500D02*
D03*
X213528Y279500D02*
D03*
Y269500D02*
D03*
Y259500D02*
D03*
Y249500D02*
D03*
X203528D02*
D03*
X193528D02*
D03*
X183528D02*
D03*
X174328Y250800D02*
D03*
X333528Y279500D02*
D03*
X343528D02*
D03*
X353528D02*
D03*
X363528D02*
D03*
X333528Y269500D02*
D03*
X343528D02*
D03*
X333528Y259500D02*
D03*
X343528Y129500D02*
D03*
X353528D02*
D03*
X363528D02*
D03*
X123528Y179500D02*
D03*
X133528D02*
D03*
X143528D02*
D03*
X153528D02*
D03*
X123528Y169500D02*
D03*
X143528D02*
D03*
X153528D02*
D03*
X363128Y189500D02*
D03*
X359328Y172100D02*
D03*
X373528Y179500D02*
D03*
Y169500D02*
D03*
X338328Y171600D02*
D03*
X353528Y189500D02*
D03*
X373528D02*
D03*
X213528Y309500D02*
D03*
X343528Y329500D02*
D03*
Y319500D02*
D03*
Y309500D02*
D03*
D50*
X139849Y294500D02*
D03*
X350528Y294531D02*
D03*
X384418Y181000D02*
D03*
X105820D02*
D03*
D104*
X277028Y322312D02*
D03*
D105*
X325228Y125300D02*
D03*
X255626Y202402D02*
D03*
X249327D02*
D03*
X252477D02*
D03*
X239878Y218150D02*
D03*
X243028D02*
D03*
X246178D02*
D03*
X249327D02*
D03*
X252477D02*
D03*
X239878Y215000D02*
D03*
X243028D02*
D03*
X246178D02*
D03*
X249327D02*
D03*
X252477D02*
D03*
X233579Y211850D02*
D03*
X236729D02*
D03*
X239878D02*
D03*
X243028D02*
D03*
X246178D02*
D03*
X249327D02*
D03*
X252477D02*
D03*
X255626D02*
D03*
X236729Y208701D02*
D03*
X239878D02*
D03*
X243028D02*
D03*
X246178D02*
D03*
X249327D02*
D03*
X252477D02*
D03*
X255626D02*
D03*
X236729Y205551D02*
D03*
X239878D02*
D03*
X243028D02*
D03*
X246178D02*
D03*
X249327D02*
D03*
X252477D02*
D03*
X255626D02*
D03*
X233579Y202402D02*
D03*
X243028D02*
D03*
X246178D02*
D03*
X157928Y164100D02*
D03*
X184428Y179900D02*
D03*
Y177500D02*
D03*
X182328Y159400D02*
D03*
X284027Y200602D02*
D03*
X282329Y202299D02*
D03*
X167528Y161300D02*
D03*
X169928D02*
D03*
X227828Y310600D02*
D03*
X196028Y165900D02*
D03*
X292828Y163200D02*
D03*
X285328Y198100D02*
D03*
X167228Y179100D02*
D03*
X194328Y199000D02*
D03*
X196528Y204600D02*
D03*
X194228Y202000D02*
D03*
X200028Y205100D02*
D03*
X202628Y209100D02*
D03*
X283528Y308800D02*
D03*
X301928Y198000D02*
D03*
X266328Y259000D02*
D03*
X253328Y124700D02*
D03*
X224828Y208500D02*
D03*
X299028Y265500D02*
D03*
X244528Y191000D02*
D03*
X225628Y192628D02*
D03*
X226126Y202402D02*
D03*
X225528Y240500D02*
D03*
X238900Y259400D02*
D03*
X279600Y270700D02*
D03*
X220528Y245500D02*
D03*
X245028Y241000D02*
D03*
X228600Y221400D02*
D03*
X290675Y262425D02*
D03*
D107*
X188528Y265400D02*
D03*
D109*
X270528Y190400D02*
D03*
Y196306D02*
D03*
X174528Y192547D02*
D03*
X270528Y200547D02*
D03*
Y206453D02*
D03*
X174528Y198453D02*
D03*
Y202547D02*
D03*
Y208453D02*
D03*
D112*
X229528Y250000D02*
D03*
D114*
X259028Y236500D02*
D03*
Y245500D02*
D03*
X160728Y179300D02*
D03*
Y188300D02*
D03*
X320328Y183200D02*
D03*
Y174200D02*
D03*
X221528Y229800D02*
D03*
Y220800D02*
D03*
D115*
X293028Y124500D02*
D03*
X284028D02*
D03*
X240028Y187500D02*
D03*
X249028D02*
D03*
X290028Y274000D02*
D03*
X299028D02*
D03*
D116*
X329028Y193000D02*
D03*
X318928Y199600D02*
D03*
X329028Y186900D02*
D03*
X318928Y205600D02*
D03*
D117*
X232028Y318000D02*
D03*
D118*
X257028Y308000D02*
D03*
X252028Y318000D02*
D03*
X242028D02*
D03*
X247028Y308000D02*
D03*
X237028D02*
D03*
X355523Y235823D02*
D03*
X357862Y228172D02*
D03*
X366256Y234921D02*
D03*
X368595Y227271D02*
D03*
X360201Y220522D02*
D03*
X363917Y242572D02*
D03*
X370934Y219620D02*
D03*
X127451Y242900D02*
D03*
X120434Y219949D02*
D03*
X135845Y236151D02*
D03*
X125112Y235250D02*
D03*
X122773Y227599D02*
D03*
X133506Y228501D02*
D03*
X131167Y220850D02*
D03*
D119*
X224528Y283000D02*
D03*
X264528D02*
D03*
X362878Y257940D02*
D03*
X377497Y210124D02*
D03*
X127320Y254443D02*
D03*
X112702Y206628D02*
D03*
D120*
X344862Y259751D02*
D03*
X363573Y198548D02*
D03*
X145337Y256254D02*
D03*
X126626Y195051D02*
D03*
D121*
X353185Y243473D02*
D03*
D122*
X128828Y213200D02*
D03*
D123*
X299300Y187980D02*
D03*
X295756D02*
D03*
X302843D02*
D03*
Y229909D02*
D03*
X299300D02*
D03*
X295756D02*
D03*
X292213D02*
D03*
X285126Y187980D02*
D03*
X288670D02*
D03*
X292213D02*
D03*
X198256Y188469D02*
D03*
X194713D02*
D03*
X191170D02*
D03*
X198256Y230398D02*
D03*
X201800D02*
D03*
X205343D02*
D03*
X208886D02*
D03*
X205343Y188469D02*
D03*
X201800D02*
D03*
X208886D02*
D03*
X187626D02*
D03*
X281583Y187980D02*
D03*
X288670Y229909D02*
D03*
X281583D02*
D03*
X285126D02*
D03*
X191170Y230398D02*
D03*
X187626D02*
D03*
X194713D02*
D03*
D127*
X274792Y212488D02*
D03*
X309634Y194772D02*
D03*
Y198315D02*
D03*
Y201858D02*
D03*
Y205402D02*
D03*
Y208945D02*
D03*
Y212488D02*
D03*
Y216032D02*
D03*
Y219575D02*
D03*
Y223118D02*
D03*
X274792Y208945D02*
D03*
Y201858D02*
D03*
Y198315D02*
D03*
Y194772D02*
D03*
Y205402D02*
D03*
X180835Y205890D02*
D03*
Y195260D02*
D03*
Y198803D02*
D03*
Y202347D02*
D03*
Y209433D02*
D03*
X215678Y223606D02*
D03*
Y220063D02*
D03*
Y216520D02*
D03*
Y212976D02*
D03*
Y209433D02*
D03*
Y205890D02*
D03*
Y202347D02*
D03*
Y198803D02*
D03*
Y195260D02*
D03*
X274792Y223118D02*
D03*
Y219575D02*
D03*
Y216032D02*
D03*
X180835Y216520D02*
D03*
Y220063D02*
D03*
Y223606D02*
D03*
Y212976D02*
D03*
D128*
X117040Y148532D02*
D03*
X192865D02*
D03*
X268691D02*
D03*
X344516D02*
D03*
D129*
X147040D02*
D03*
X142040Y152469D02*
D03*
X122040D02*
D03*
X137040D02*
D03*
X132040Y148532D02*
D03*
X127040Y152469D02*
D03*
X222865Y148532D02*
D03*
X217865Y152469D02*
D03*
X197865D02*
D03*
X212865D02*
D03*
X207865Y148532D02*
D03*
X202865Y152469D02*
D03*
X298691Y148532D02*
D03*
X293691Y152469D02*
D03*
X273691D02*
D03*
X288691D02*
D03*
X283691Y148532D02*
D03*
X278691Y152469D02*
D03*
X374516Y148532D02*
D03*
X369516Y152469D02*
D03*
X349516D02*
D03*
X364516D02*
D03*
X359516Y148532D02*
D03*
X354516Y152469D02*
D03*
D130*
X157552Y150500D02*
D03*
X106528D02*
D03*
X233377D02*
D03*
X182353D02*
D03*
X309203D02*
D03*
X258179D02*
D03*
X385028D02*
D03*
X334004D02*
D03*
D131*
X275528Y129500D02*
D03*
X295528D02*
D03*
X285528Y119500D02*
D03*
D132*
X237028Y172000D02*
D03*
X199928Y125300D02*
D03*
D133*
X247028Y172000D02*
D03*
X257028D02*
D03*
X159528Y298000D02*
D03*
Y308000D02*
D03*
Y318000D02*
D03*
X188528Y298000D02*
D03*
Y308000D02*
D03*
Y318000D02*
D03*
X303028Y297000D02*
D03*
Y307000D02*
D03*
Y317000D02*
D03*
X332028Y297000D02*
D03*
Y307000D02*
D03*
Y317000D02*
D03*
X239928Y125300D02*
D03*
X229928D02*
D03*
X219928D02*
D03*
X209928D02*
D03*
D134*
X159528Y288000D02*
D03*
X188528D02*
D03*
X303028Y287000D02*
D03*
X332028D02*
D03*
D135*
X240028Y181500D02*
D03*
D136*
X330628Y204400D02*
D03*
X317928Y219600D02*
D03*
X206028Y154700D02*
D03*
X257428Y164100D02*
D03*
X254328Y181800D02*
D03*
X226928Y206000D02*
D03*
X253628Y163700D02*
D03*
X246128Y165600D02*
D03*
X265728Y204200D02*
D03*
X268628Y214600D02*
D03*
X320428Y240400D02*
D03*
X335428Y234700D02*
D03*
D137*
X288134Y179300D02*
D03*
X297522Y179500D02*
D03*
D138*
X299496Y218000D02*
D03*
X205540Y218488D02*
D03*
X285028Y218000D02*
D03*
X191071Y218488D02*
D03*
D139*
X293985Y198512D02*
D03*
X200028Y199000D02*
D03*
D140*
X308355Y228827D02*
D03*
X276071Y189457D02*
D03*
X308355Y189063D02*
D03*
X214398Y189551D02*
D03*
X182115Y189945D02*
D03*
X214398Y229315D02*
D03*
X276071Y228827D02*
D03*
X182115Y229315D02*
D03*
D141*
X178522Y179000D02*
D03*
X309334Y179500D02*
D03*
X203122Y179000D02*
D03*
X276322Y179300D02*
D03*
X190334Y179000D02*
D03*
X214734Y239900D02*
D03*
X202922D02*
D03*
X309934Y240000D02*
D03*
X214934Y179000D02*
D03*
X181722Y239900D02*
D03*
X193534D02*
D03*
X298122Y240000D02*
D03*
X276622D02*
D03*
X288434D02*
D03*
D142*
X238028Y243500D02*
D03*
X251528D02*
D03*
Y236500D02*
D03*
X238028D02*
D03*
X251028Y194000D02*
D03*
X237528D02*
D03*
X238028Y250500D02*
D03*
X251528D02*
D03*
D143*
X221528Y190500D02*
D03*
M02*
