M48
;Layer_Color=9474304
;FILE_FORMAT=2:5
INCH,LZ
;TYPE=PLATED
T1F00S00C0.00800
T2F00S00C0.02000
T3F00S00C0.02200
T4F00S00C0.02500
T5F00S00C0.02913
T6F00S00C0.03500
T7F00S00C0.03543
T8F00S00C0.03800
T9F00S00C0.05315
T10F00S00C0.06200
T11F00S00C0.09600
;TYPE=NON_PLATED
T12F00S00C0.12800
%
T01
X0161482Y0125
X0206028Y01547
X0253328Y01247
X0325228Y01253
X0320328Y01742
Y01832
X0330628Y02044
X0317928Y02196
X0320428Y02404
X0335428Y02347
X0309934Y024
X0298122
X0288434
X028867Y0229909
X0285126
X0281583
X0276071Y0228827
X0274792Y0223118
Y0219575
Y0216032
X0268628Y02146
X0265728Y02042
X0255626Y0205551
Y0202402
X0252477
X0249327
Y0205551
Y0208701
Y021185
Y0215
Y021815
X0246178
X0243028
X0239878
Y0215
X0243028
X0246178
Y021185
X0243028
X0239878
X0236729
X0233579
X0236729Y0208701
X0239878
X0243028
X0246178
Y0205551
X0243028
X0239878
X0236729
X0233579Y0202402
X0226126
X0226928Y0206
X0224828Y02085
X0221528Y02208
X02286Y02214
X0221528Y02298
X0225528Y02405
X0220528Y02455
X0214734Y02399
X0202922
X0193534
X0194713Y0230398
X019117
X0187626
X0182115Y0229315
X0180835Y0223606
Y0220063
Y021652
Y0212976
X0174528Y0208453
X0196528Y02046
X0200028Y02051
X0202628Y02091
X0205528Y021
X0194228Y0202
X0194328Y0199
X0187626Y0188469
X0184428Y01799
Y01775
X0190334Y0179
X0196028Y01659
X0182328Y01594
X0169928Y01613
X0167528
X0157928Y01641
X0160728Y01793
X0167228Y01791
X0160728Y01883
X0221528Y01905
X0225628Y0192628
X0244528Y0191
X0243028Y0202402
X0246178
X0252477Y0205551
Y0208701
Y021185
Y0215
Y021815
X0255626Y021185
Y0208701
X0254328Y01818
X0240028Y01815
X0246128Y01656
X0253628Y01637
X0257428Y01641
X0292828Y01632
X0297522Y01795
X0301928Y0198
X0288428Y02013
X0284027Y0200602
X0282329Y0202299
X0281583Y018798
X0276622Y024
X0278028Y026
X0283528Y0256
X0290675Y0262425
X0299028Y02655
Y0274
X0290028
X02796Y02707
X0266328Y0259
X0251528Y02505
X0245028Y0241
X0229528Y025
X02389Y02594
X0211428Y02904
X0202428
X0181722Y02399
X0214934Y0179
X0311804Y0257776
X0283428Y02995
X0283528Y03088
X0291528Y03108
X0277028Y0305
X0136528Y02798
X0277028Y0322312
T02
X0191071Y0218488
X0285028Y0218
T03
X0275528Y01295
X0295528
X0285528Y01195
X0193328Y02585
X0203328Y02685
X0183328
T04
X0329028Y01869
Y0193
X0318928Y01996
Y02056
T05
X011704Y0148532
X012204Y0152469
X012704
X013204Y0148532
X013704Y0152469
X014204
X014704Y0148532
X0192865
X0197865Y0152469
X0202865
X0207865Y0148532
X0212865Y0152469
X0217865
X0222865Y0148532
X0268691
X0273691Y0152469
X0278691
X0283691Y0148532
X0288691Y0152469
X0293691
X0298691Y0148532
X0344516
X0349516Y0152469
X0354516
X0359516Y0148532
X0364516Y0152469
X0369516
X0374516Y0148532
T06
X0360201Y0220522
X0357862Y0228172
X0355523Y0235823
X0353185Y0243473
X0363917Y0242572
X0366256Y0234921
X0368595Y0227271
X0370934Y021962
X0131167Y022085
X0133506Y0228501
X0135845Y0236151
X0125112Y023525
X0122773Y0227599
X0120434Y0219949
X0128828Y02132
X0127451Y02429
T07
X0237028Y0308
X0247028
X0257028
X0252028Y0318
X0242028
X0232028
T08
X0137728Y01258
X0147728
X0199928Y01253
X0209928
X0219928
X0229928
X0239928
X0343528Y01295
X0353528
X0363528
X0359328Y01721
X0373528Y01695
Y01795
Y01895
X0363128
X0353528
X0338328Y01716
X0333528Y02595
Y02695
Y02795
X0332028Y0287
Y0297
Y0307
X0343528Y03095
Y02795
X0353528
X0363528
X0343528Y02695
X0303028Y0287
Y0297
Y0307
X0213528Y03095
X0188528Y0308
Y0298
Y0288
X0183528Y02795
X0173528
X0163528
Y02695
X0173528
Y02595
X0174328Y02508
X0183528Y02495
X0193528
X0203528
X0213528
Y02595
Y02695
Y02795
X0203528
X0193528
X0159528Y0288
Y0298
Y0308
X0163528Y02595
X0237028Y0172
X0247028
X0257028
X0153528Y01695
Y01795
X0143528
X0133528
X0123528
Y01695
X0143528
Y02695
X0153528
Y02795
Y02595
X0143528Y03095
Y03195
Y03295
X0159528Y0318
X0188528
X0203528Y03195
X0213528
X0303028Y0317
X0332028
X0343528Y03195
Y03295
T09
X0106528Y01505
X0157552
X0182353
X0233377
X0258179
X0309203
X0334004
X0385028
T10
X0363573Y0198548
X0344862Y0259751
X0145337Y0256254
X0126626Y0195051
T11
X0384418Y0181
X0350528Y0294531
X0139849Y02945
X010582Y0181
T12
X0377497Y0210124
X0362878Y025794
X0264528Y0283
X0224528
X012732Y0254443
X0112702Y0206628
M30
