%FSLAX25Y25*%
%MOIN*%
G70*
G01*
G75*
G04 Layer_Color=8388736*
%ADD10C,0.01155*%
%ADD11C,0.01150*%
%ADD12R,0.07087X0.06299*%
%ADD13C,0.02000*%
%ADD14R,0.01378X0.05512*%
%ADD15R,0.15000X0.08500*%
%ADD16R,0.02756X0.01575*%
%ADD17R,0.03543X0.02756*%
%ADD18R,0.06496X0.00984*%
%ADD19R,0.06496X0.00984*%
%ADD20R,0.06000X0.06000*%
%ADD21R,0.02756X0.03543*%
%ADD22R,0.05000X0.06000*%
%ADD23R,0.06000X0.05000*%
%ADD24C,0.02500*%
%ADD25C,0.00448*%
%ADD26C,0.00403*%
%ADD27C,0.00500*%
%ADD28C,0.00807*%
%ADD29C,0.00500*%
%ADD30C,0.00669*%
%ADD31C,0.00800*%
%ADD32C,0.00400*%
%ADD33C,0.02000*%
%ADD34C,0.00600*%
%ADD35R,0.05906X0.05906*%
%ADD36C,0.05906*%
%ADD37C,0.14000*%
%ADD38C,0.07400*%
%ADD39P,0.08352X4X152.0*%
%ADD40P,0.08352X4X298.0*%
%ADD41C,0.05000*%
%ADD42R,0.02362X0.03740*%
%ADD43C,0.03000*%
%ADD44C,0.04000*%
%ADD45P,0.02165X8X22.5*%
%ADD46R,0.03740X0.02362*%
%ADD47C,0.05200*%
%ADD48R,0.05200X0.05200*%
%ADD49R,0.03937X0.03937*%
%ADD50C,0.03937*%
G04:AMPARAMS|DCode=51|XSize=78.74mil|YSize=78.74mil|CornerRadius=19.69mil|HoleSize=0mil|Usage=FLASHONLY|Rotation=0.000|XOffset=0mil|YOffset=0mil|HoleType=Round|Shape=RoundedRectangle|*
%AMROUNDEDRECTD51*
21,1,0.07874,0.03937,0,0,0.0*
21,1,0.03937,0.07874,0,0,0.0*
1,1,0.03937,0.01969,-0.01969*
1,1,0.03937,-0.01969,-0.01969*
1,1,0.03937,-0.01969,0.01969*
1,1,0.03937,0.01969,0.01969*
%
%ADD51ROUNDEDRECTD51*%
%ADD52C,0.03500*%
%ADD53R,0.05200X0.05200*%
%ADD54R,0.02000X0.02000*%
%ADD55C,0.13000*%
%ADD56C,0.01800*%
%ADD57C,0.04000*%
%ADD58C,0.05543*%
%ADD59C,0.14800*%
%ADD60C,0.08200*%
%ADD61C,0.05500*%
G04:AMPARAMS|DCode=62|XSize=68mil|YSize=68mil|CornerRadius=0mil|HoleSize=0mil|Usage=FLASHONLY|Rotation=0.000|XOffset=0mil|YOffset=0mil|HoleType=Round|Shape=Relief|Width=10mil|Gap=10mil|Entries=4|*
%AMTHD62*
7,0,0,0.06800,0.04800,0.01000,45*
%
%ADD62THD62*%
%ADD63C,0.04500*%
%ADD64C,0.02800*%
G04:AMPARAMS|DCode=65|XSize=40mil|YSize=40mil|CornerRadius=0mil|HoleSize=0mil|Usage=FLASHONLY|Rotation=0.000|XOffset=0mil|YOffset=0mil|HoleType=Round|Shape=Relief|Width=6mil|Gap=8mil|Entries=4|*
%AMTHD65*
7,0,0,0.04000,0.02400,0.00600,45*
%
%ADD65THD65*%
G04:AMPARAMS|DCode=66|XSize=52mil|YSize=52mil|CornerRadius=0mil|HoleSize=0mil|Usage=FLASHONLY|Rotation=0.000|XOffset=0mil|YOffset=0mil|HoleType=Round|Shape=Relief|Width=6mil|Gap=8mil|Entries=4|*
%AMTHD66*
7,0,0,0.05200,0.03600,0.00600,45*
%
%ADD66THD66*%
%ADD67C,0.05800*%
G04:AMPARAMS|DCode=68|XSize=20mil|YSize=20mil|CornerRadius=0mil|HoleSize=0mil|Usage=FLASHONLY|Rotation=0.000|XOffset=0mil|YOffset=0mil|HoleType=Round|Shape=Relief|Width=4mil|Gap=3mil|Entries=4|*
%AMTHD68*
7,0,0,0.02000,0.01400,0.00400,45*
%
%ADD68THD68*%
%ADD69C,0.04913*%
%ADD70C,0.07315*%
%ADD71C,0.04200*%
%ADD72C,0.11600*%
%ADD73C,0.01297*%
%ADD74C,0.00918*%
%ADD75C,0.00390*%
%ADD76R,0.07874X0.08661*%
%ADD77R,0.06000X0.06000*%
%ADD78C,0.01500*%
G04:AMPARAMS|DCode=79|XSize=98mil|YSize=98mil|CornerRadius=0mil|HoleSize=0mil|Usage=FLASHONLY|Rotation=0.000|XOffset=0mil|YOffset=0mil|HoleType=Round|Shape=Relief|Width=10mil|Gap=10mil|Entries=4|*
%AMTHD79*
7,0,0,0.09800,0.07800,0.01000,45*
%
%ADD79THD79*%
%ADD80R,0.07874X0.08661*%
%ADD81R,0.09252X0.12205*%
%ADD82R,0.06299X0.06693*%
%ADD83R,0.06299X0.06693*%
%ADD84C,0.01000*%
%ADD85C,0.00375*%
%ADD86R,0.02000X0.01000*%
%ADD87R,0.07000X0.19000*%
%ADD88R,0.01000X0.14000*%
%ADD89R,0.05000X0.15000*%
%ADD90R,0.02000X0.01500*%
%ADD91R,0.06000X0.03500*%
%ADD92R,0.00500X0.01500*%
%ADD93R,0.01500X0.03000*%
%ADD94R,0.07500X0.26000*%
%ADD95R,0.02362X0.03740*%
%ADD96R,0.02362X0.03740*%
%ADD97R,0.02362X0.03740*%
%ADD98R,0.02362X0.03740*%
%ADD99R,0.03740X0.02362*%
%ADD100R,0.03740X0.02362*%
%ADD101R,0.06000X0.02760*%
%ADD102R,0.02107X0.03100*%
%ADD103R,0.05000X0.14260*%
%ADD104R,0.01000X0.13760*%
%ADD105R,0.02000X0.02000*%
%ADD106C,0.00984*%
%ADD107C,0.00787*%
%ADD108C,0.00394*%
%ADD109C,0.01200*%
%ADD110R,0.07487X0.06699*%
%ADD111C,0.02400*%
%ADD112R,0.01778X0.05912*%
%ADD113R,0.15400X0.08900*%
%ADD114R,0.03156X0.01975*%
%ADD115R,0.03943X0.03156*%
%ADD116R,0.06896X0.01384*%
%ADD117R,0.06896X0.01384*%
%ADD118R,0.06400X0.06400*%
%ADD119R,0.03156X0.03943*%
%ADD120R,0.05400X0.06400*%
%ADD121R,0.06400X0.05400*%
%ADD122R,0.06306X0.06306*%
%ADD123C,0.06306*%
%ADD124C,0.14400*%
%ADD125C,0.07800*%
%ADD126P,0.08917X4X152.0*%
%ADD127P,0.08917X4X298.0*%
%ADD128C,0.05400*%
%ADD129R,0.02762X0.04140*%
%ADD130C,0.03400*%
%ADD131C,0.04400*%
%ADD132P,0.02598X8X22.5*%
%ADD133R,0.04140X0.02762*%
%ADD134C,0.05600*%
%ADD135R,0.05600X0.05600*%
%ADD136R,0.04337X0.04337*%
%ADD137C,0.04337*%
G04:AMPARAMS|DCode=138|XSize=82.74mil|YSize=82.74mil|CornerRadius=21.69mil|HoleSize=0mil|Usage=FLASHONLY|Rotation=0.000|XOffset=0mil|YOffset=0mil|HoleType=Round|Shape=RoundedRectangle|*
%AMROUNDEDRECTD138*
21,1,0.08274,0.03937,0,0,0.0*
21,1,0.03937,0.08274,0,0,0.0*
1,1,0.04337,0.01969,-0.01969*
1,1,0.04337,-0.01969,-0.01969*
1,1,0.04337,-0.01969,0.01969*
1,1,0.04337,0.01969,0.01969*
%
%ADD138ROUNDEDRECTD138*%
%ADD139C,0.03900*%
%ADD140R,0.05600X0.05600*%
%ADD141R,0.02400X0.02400*%
%ADD142C,0.02200*%
D13*
X283528Y256000D02*
D03*
X291528Y310800D02*
D03*
X283428Y299500D02*
D03*
X205528Y210000D02*
D03*
X311804Y257776D02*
D03*
X278028Y260000D02*
D03*
X277028Y305000D02*
D03*
D47*
X137728Y125800D02*
D03*
X147728D02*
D03*
X157728D02*
D03*
X199828Y117300D02*
D03*
X203528Y319500D02*
D03*
X213528D02*
D03*
X133528Y279500D02*
D03*
X143528D02*
D03*
X153528D02*
D03*
X163528D02*
D03*
X173528D02*
D03*
X183528D02*
D03*
X193528D02*
D03*
X203528D02*
D03*
Y269500D02*
D03*
X173528D02*
D03*
X163528D02*
D03*
X153528D02*
D03*
X143528D02*
D03*
X153528Y259500D02*
D03*
X163528D02*
D03*
X173528D02*
D03*
X203528D02*
D03*
X143528Y309500D02*
D03*
Y319500D02*
D03*
Y329500D02*
D03*
X213528Y279500D02*
D03*
Y269500D02*
D03*
Y259500D02*
D03*
Y249500D02*
D03*
X203528D02*
D03*
X193528D02*
D03*
X183528D02*
D03*
X174328Y250800D02*
D03*
X333528Y279500D02*
D03*
X343528D02*
D03*
X353528D02*
D03*
X363528D02*
D03*
X333528Y269500D02*
D03*
X343528D02*
D03*
X333528Y259500D02*
D03*
X343528Y129500D02*
D03*
X353528D02*
D03*
X363528D02*
D03*
X123528Y179500D02*
D03*
X133528D02*
D03*
X143528D02*
D03*
X153528D02*
D03*
X123528Y169500D02*
D03*
X143528D02*
D03*
X153528D02*
D03*
X363128Y189500D02*
D03*
X359328Y172100D02*
D03*
X373528Y179500D02*
D03*
Y169500D02*
D03*
X338328Y171600D02*
D03*
X353528Y189500D02*
D03*
X373528D02*
D03*
X213528Y309500D02*
D03*
X343528Y329500D02*
D03*
Y319500D02*
D03*
Y309500D02*
D03*
D55*
X139849Y294500D02*
D03*
X350528Y294531D02*
D03*
X384418Y181000D02*
D03*
X105820D02*
D03*
D110*
X277028Y311288D02*
D03*
Y322312D02*
D03*
D111*
X239878Y202402D02*
D03*
X236729D02*
D03*
X233579Y205551D02*
D03*
Y208701D02*
D03*
X255626Y215000D02*
D03*
Y218150D02*
D03*
X233579D02*
D03*
X236729D02*
D03*
X233579Y221299D02*
D03*
Y224449D02*
D03*
X239878D02*
D03*
Y221299D02*
D03*
X252477D02*
D03*
Y224449D02*
D03*
X246178D02*
D03*
Y221299D02*
D03*
X236729Y224449D02*
D03*
X243028D02*
D03*
X249327D02*
D03*
X255626D02*
D03*
X236729Y221299D02*
D03*
X243028D02*
D03*
X249327D02*
D03*
X255626D02*
D03*
X233579Y215000D02*
D03*
X236729D02*
D03*
X255626Y202402D02*
D03*
X249327D02*
D03*
X252477D02*
D03*
X160728Y179300D02*
D03*
Y188300D02*
D03*
X320328Y183200D02*
D03*
Y174200D02*
D03*
X187626Y188469D02*
D03*
X297522Y179500D02*
D03*
X276071Y228827D02*
D03*
X274792Y223118D02*
D03*
Y219575D02*
D03*
Y216032D02*
D03*
X288670Y229909D02*
D03*
X281583D02*
D03*
X285126D02*
D03*
X187626Y230398D02*
D03*
X194713D02*
D03*
X180835Y216520D02*
D03*
Y220063D02*
D03*
Y223606D02*
D03*
X182115Y229315D02*
D03*
X214734Y239900D02*
D03*
X202922D02*
D03*
X239878Y218150D02*
D03*
X243028D02*
D03*
X246178D02*
D03*
X249327D02*
D03*
X252477D02*
D03*
X239878Y215000D02*
D03*
X243028D02*
D03*
X246178D02*
D03*
X249327D02*
D03*
X252477D02*
D03*
X233579Y211850D02*
D03*
X236729D02*
D03*
X239878D02*
D03*
X243028D02*
D03*
X246178D02*
D03*
X249327D02*
D03*
X252477D02*
D03*
X255626D02*
D03*
X236729Y208701D02*
D03*
X239878D02*
D03*
X243028D02*
D03*
X246178D02*
D03*
X249327D02*
D03*
X252477D02*
D03*
X255626D02*
D03*
X236729Y205551D02*
D03*
X239878D02*
D03*
X243028D02*
D03*
X246178D02*
D03*
X249327D02*
D03*
X252477D02*
D03*
X255626D02*
D03*
X233579Y202402D02*
D03*
X243028D02*
D03*
X246178D02*
D03*
X251528Y250500D02*
D03*
X214934Y179000D02*
D03*
X181722Y239900D02*
D03*
X193534D02*
D03*
X221528Y229800D02*
D03*
Y220800D02*
D03*
X196028Y165900D02*
D03*
X292828Y163200D02*
D03*
X285328Y198100D02*
D03*
X184428Y177500D02*
D03*
Y179900D02*
D03*
X167228Y179100D02*
D03*
X194328Y199000D02*
D03*
X196528Y204600D02*
D03*
X194228Y202000D02*
D03*
X200028Y205100D02*
D03*
X284027Y200602D02*
D03*
X282329Y202299D02*
D03*
X202628Y209100D02*
D03*
X283528Y308800D02*
D03*
X301928Y198000D02*
D03*
X189228Y159700D02*
D03*
X174728Y165700D02*
D03*
Y163300D02*
D03*
X167528Y161300D02*
D03*
X169928D02*
D03*
X266328Y259000D02*
D03*
X253328Y124700D02*
D03*
X224828Y208500D02*
D03*
X299028Y265500D02*
D03*
X244528Y191000D02*
D03*
X225628Y192628D02*
D03*
X226126Y202402D02*
D03*
X225528Y240500D02*
D03*
X238900Y259400D02*
D03*
X279600Y270700D02*
D03*
X220528Y245500D02*
D03*
X245028Y241000D02*
D03*
X228600Y221400D02*
D03*
X290675Y262425D02*
D03*
D112*
X312129Y170462D02*
D03*
X309570D02*
D03*
X307010D02*
D03*
X304451D02*
D03*
X301892D02*
D03*
X299333D02*
D03*
X296774D02*
D03*
X294215D02*
D03*
X291656D02*
D03*
X289097D02*
D03*
X286538D02*
D03*
X283979D02*
D03*
X281419D02*
D03*
X278860D02*
D03*
Y193100D02*
D03*
X281419D02*
D03*
X283978D02*
D03*
X286537D02*
D03*
X289097D02*
D03*
X291656D02*
D03*
X294215D02*
D03*
X296774D02*
D03*
X299333D02*
D03*
X301892D02*
D03*
X304451D02*
D03*
X307010D02*
D03*
X309569D02*
D03*
X312128D02*
D03*
X172328Y170900D02*
D03*
X174887D02*
D03*
X177446D02*
D03*
X180005D02*
D03*
X182564D02*
D03*
X185123D02*
D03*
X187682D02*
D03*
X190241D02*
D03*
X192800D02*
D03*
X195360D02*
D03*
X197919D02*
D03*
X200478D02*
D03*
X203037D02*
D03*
X205596D02*
D03*
Y193538D02*
D03*
X203037D02*
D03*
X200478D02*
D03*
X197918D02*
D03*
X195359D02*
D03*
X192800D02*
D03*
X190241D02*
D03*
X187682D02*
D03*
X185123D02*
D03*
X182564D02*
D03*
X180005D02*
D03*
X177446D02*
D03*
X174887D02*
D03*
X172327D02*
D03*
D113*
X180128Y125100D02*
D03*
X253628D02*
D03*
X318828Y219600D02*
D03*
X191528Y220000D02*
D03*
X325228Y125300D02*
D03*
X188528Y265400D02*
D03*
D114*
X283493Y307559D02*
D03*
X291563D02*
D03*
X283493Y302441D02*
D03*
X291563D02*
D03*
Y305000D02*
D03*
D115*
X221528Y205047D02*
D03*
Y210953D02*
D03*
X174528Y208453D02*
D03*
D116*
X283603Y267224D02*
D03*
X305453D02*
D03*
Y257776D02*
D03*
D117*
X283603Y265650D02*
D03*
Y264075D02*
D03*
Y262500D02*
D03*
Y260925D02*
D03*
Y259350D02*
D03*
Y257776D02*
D03*
X305453Y265650D02*
D03*
Y264075D02*
D03*
Y262500D02*
D03*
Y260925D02*
D03*
Y259350D02*
D03*
D118*
X229528Y236500D02*
D03*
Y250000D02*
D03*
D119*
X191581Y165400D02*
D03*
X185675D02*
D03*
X292175Y199400D02*
D03*
X298081D02*
D03*
D120*
X215528Y208500D02*
D03*
Y217500D02*
D03*
X209528Y199500D02*
D03*
Y208500D02*
D03*
X215528Y199500D02*
D03*
Y190500D02*
D03*
X221528Y199500D02*
D03*
Y190500D02*
D03*
D121*
X249028Y187500D02*
D03*
X240028D02*
D03*
X249028Y181500D02*
D03*
X240028D02*
D03*
X290028Y274000D02*
D03*
X299028D02*
D03*
D122*
X232028Y318000D02*
D03*
D123*
X257028Y308000D02*
D03*
X252028Y318000D02*
D03*
X242028D02*
D03*
X247028Y308000D02*
D03*
X237028D02*
D03*
X355523Y235823D02*
D03*
X357862Y228172D02*
D03*
X366256Y234921D02*
D03*
X368595Y227271D02*
D03*
X360201Y220522D02*
D03*
X363917Y242572D02*
D03*
X370934Y219620D02*
D03*
X127451Y242900D02*
D03*
X120434Y219949D02*
D03*
X135845Y236151D02*
D03*
X125112Y235250D02*
D03*
X122773Y227599D02*
D03*
X133506Y228501D02*
D03*
X131167Y220850D02*
D03*
D124*
X224528Y283000D02*
D03*
X264528D02*
D03*
X362878Y257940D02*
D03*
X377497Y210124D02*
D03*
X127320Y254443D02*
D03*
X112702Y206628D02*
D03*
D125*
X344862Y259751D02*
D03*
X363573Y198548D02*
D03*
X145337Y256254D02*
D03*
X126626Y195051D02*
D03*
D126*
X353185Y243473D02*
D03*
D127*
X128828Y213200D02*
D03*
D128*
X329028Y186900D02*
D03*
Y193000D02*
D03*
X318928Y205600D02*
D03*
Y199600D02*
D03*
D129*
X281583Y187980D02*
D03*
D130*
X190334Y179000D02*
D03*
D131*
X285028Y218000D02*
D03*
X191071Y218488D02*
D03*
D132*
X191170Y230398D02*
D03*
D133*
X180835Y212976D02*
D03*
D134*
X239828Y125400D02*
D03*
X229828D02*
D03*
X219828D02*
D03*
X209828D02*
D03*
X247028Y172000D02*
D03*
X257028D02*
D03*
X159528Y298000D02*
D03*
Y308000D02*
D03*
Y318000D02*
D03*
X188528Y298000D02*
D03*
Y308000D02*
D03*
Y318000D02*
D03*
X303028Y297000D02*
D03*
Y307000D02*
D03*
Y317000D02*
D03*
X332028Y297000D02*
D03*
Y307000D02*
D03*
Y317000D02*
D03*
D135*
X199828Y125400D02*
D03*
X237028Y172000D02*
D03*
D136*
X117040Y148532D02*
D03*
X192865D02*
D03*
X268691D02*
D03*
X344516D02*
D03*
D137*
X147040D02*
D03*
X142040Y152469D02*
D03*
X122040D02*
D03*
X137040D02*
D03*
X132040Y148532D02*
D03*
X127040Y152469D02*
D03*
X222865Y148532D02*
D03*
X217865Y152469D02*
D03*
X197865D02*
D03*
X212865D02*
D03*
X207865Y148532D02*
D03*
X202865Y152469D02*
D03*
X298691Y148532D02*
D03*
X293691Y152469D02*
D03*
X273691D02*
D03*
X288691D02*
D03*
X283691Y148532D02*
D03*
X278691Y152469D02*
D03*
X374516Y148532D02*
D03*
X369516Y152469D02*
D03*
X349516D02*
D03*
X364516D02*
D03*
X359516Y148532D02*
D03*
X354516Y152469D02*
D03*
D138*
X157552Y150500D02*
D03*
X106528D02*
D03*
X233377D02*
D03*
X182353D02*
D03*
X309203D02*
D03*
X258179D02*
D03*
X385028D02*
D03*
X334004D02*
D03*
D139*
X275528Y129500D02*
D03*
X295528D02*
D03*
X285528Y119500D02*
D03*
D140*
X159528Y288000D02*
D03*
X188528D02*
D03*
X303028Y287000D02*
D03*
X332028D02*
D03*
D141*
X309934Y240000D02*
D03*
X298122D02*
D03*
X276622D02*
D03*
X288434D02*
D03*
D142*
X317928Y219600D02*
D03*
X330628Y204400D02*
D03*
X210028Y204000D02*
D03*
X206028Y154700D02*
D03*
X257428Y164100D02*
D03*
X254328Y181800D02*
D03*
X226928Y206000D02*
D03*
X253628Y163700D02*
D03*
X246128Y165600D02*
D03*
X265728Y204200D02*
D03*
X268628Y214600D02*
D03*
X320428Y240400D02*
D03*
X335428Y234700D02*
D03*
X227228Y216700D02*
D03*
Y213800D02*
D03*
M02*
