%FSLAX25Y25*%
%MOIN*%
G70*
G01*
G75*
G04 Layer_Physical_Order=2*
G04 Layer_Color=8388736*
%ADD10C,0.00605*%
%ADD11R,0.03347X0.05118*%
%ADD12R,0.07087X0.06299*%
%ADD13C,0.02000*%
%ADD14R,0.01378X0.05512*%
%ADD15R,0.15000X0.08500*%
%ADD16R,0.02756X0.01575*%
%ADD17R,0.03543X0.02756*%
%ADD18R,0.06496X0.00984*%
%ADD19R,0.06496X0.00984*%
%ADD20R,0.06000X0.06000*%
%ADD21R,0.02756X0.03543*%
%ADD22R,0.05000X0.06000*%
%ADD23R,0.06000X0.05000*%
%ADD24C,0.00800*%
%ADD25C,0.02000*%
%ADD26C,0.00425*%
%ADD27C,0.00500*%
%ADD28C,0.00400*%
%ADD29C,0.00600*%
%ADD30C,0.05000*%
%ADD31R,0.05906X0.05906*%
%ADD32C,0.05906*%
%ADD33C,0.14000*%
%ADD34C,0.07400*%
%ADD35P,0.08352X4X152.0*%
%ADD36P,0.08352X4X298.0*%
%ADD37R,0.02362X0.03740*%
%ADD38C,0.03000*%
%ADD39C,0.04000*%
%ADD40P,0.02165X8X22.5*%
%ADD41R,0.03740X0.02362*%
%ADD42R,0.03937X0.03937*%
%ADD43C,0.03937*%
G04:AMPARAMS|DCode=44|XSize=78.74mil|YSize=78.74mil|CornerRadius=19.69mil|HoleSize=0mil|Usage=FLASHONLY|Rotation=0.000|XOffset=0mil|YOffset=0mil|HoleType=Round|Shape=RoundedRectangle|*
%AMROUNDEDRECTD44*
21,1,0.07874,0.03937,0,0,0.0*
21,1,0.03937,0.07874,0,0,0.0*
1,1,0.03937,0.01969,-0.01969*
1,1,0.03937,-0.01969,-0.01969*
1,1,0.03937,-0.01969,0.01969*
1,1,0.03937,0.01969,0.01969*
%
%ADD44ROUNDEDRECTD44*%
%ADD45C,0.03500*%
%ADD46R,0.05200X0.05200*%
%ADD47C,0.05200*%
%ADD48R,0.05200X0.05200*%
%ADD49R,0.02000X0.02000*%
%ADD50C,0.13000*%
%ADD51C,0.01800*%
%ADD52C,0.02200*%
%ADD53C,0.04000*%
%ADD54C,0.02800*%
%ADD55C,0.04500*%
%ADD56C,0.05543*%
%ADD57C,0.14800*%
%ADD58C,0.08200*%
%ADD59C,0.05500*%
G04:AMPARAMS|DCode=60|XSize=68mil|YSize=68mil|CornerRadius=0mil|HoleSize=0mil|Usage=FLASHONLY|Rotation=0.000|XOffset=0mil|YOffset=0mil|HoleType=Round|Shape=Relief|Width=10mil|Gap=10mil|Entries=4|*
%AMTHD60*
7,0,0,0.06800,0.04800,0.01000,45*
%
%ADD60THD60*%
G04:AMPARAMS|DCode=61|XSize=40mil|YSize=40mil|CornerRadius=0mil|HoleSize=0mil|Usage=FLASHONLY|Rotation=0.000|XOffset=0mil|YOffset=0mil|HoleType=Round|Shape=Relief|Width=6mil|Gap=8mil|Entries=4|*
%AMTHD61*
7,0,0,0.04000,0.02400,0.00600,45*
%
%ADD61THD61*%
G04:AMPARAMS|DCode=62|XSize=52mil|YSize=52mil|CornerRadius=0mil|HoleSize=0mil|Usage=FLASHONLY|Rotation=0.000|XOffset=0mil|YOffset=0mil|HoleType=Round|Shape=Relief|Width=6mil|Gap=8mil|Entries=4|*
%AMTHD62*
7,0,0,0.05200,0.03600,0.00600,45*
%
%ADD62THD62*%
G04:AMPARAMS|DCode=63|XSize=20mil|YSize=20mil|CornerRadius=0mil|HoleSize=0mil|Usage=FLASHONLY|Rotation=0.000|XOffset=0mil|YOffset=0mil|HoleType=Round|Shape=Relief|Width=4mil|Gap=3mil|Entries=4|*
%AMTHD63*
7,0,0,0.02000,0.01400,0.00400,45*
%
%ADD63THD63*%
%ADD64C,0.04913*%
%ADD65C,0.07315*%
%ADD66C,0.04200*%
%ADD67C,0.05800*%
%ADD68C,0.11600*%
%ADD69C,0.03200*%
D29*
X82528Y141999D02*
X83128Y142599D01*
X84327D01*
X84927Y141999D01*
Y141399D01*
X84327Y140799D01*
X83728D01*
X84327D01*
X84927Y140200D01*
Y139600D01*
X84327Y139000D01*
X83128D01*
X82528Y139600D01*
X86127Y142599D02*
Y140200D01*
X87327Y139000D01*
X88526Y140200D01*
Y142599D01*
X92125Y141999D02*
X91525Y142599D01*
X90325D01*
X89726Y141999D01*
Y139600D01*
X90325Y139000D01*
X91525D01*
X92125Y139600D01*
X95724Y141999D02*
X95124Y142599D01*
X93924D01*
X93325Y141999D01*
Y139600D01*
X93924Y139000D01*
X95124D01*
X95724Y139600D01*
X96923Y142599D02*
Y139000D01*
X98723D01*
X99323Y139600D01*
Y141999D01*
X98723Y142599D01*
X96923D01*
D39*
X285028Y218000D02*
D03*
D53*
X74384Y134613D02*
G03*
X415835Y134379I171116J570387D01*
G01*
D02*
G03*
X416193Y134860I-143J481D01*
G01*
D02*
G03*
X415749Y135358I-501J0D01*
G01*
X353943Y342409D02*
G03*
X354123Y342793I-322J385D01*
G01*
D02*
G03*
X353478Y343274I-501J0D01*
G01*
X137027Y343422D02*
G03*
X353478Y343274I108473J361578D01*
G01*
X137027Y343422D02*
G03*
X136452Y343198I-144J-480D01*
G01*
X135941D02*
G03*
X135941Y342802I0J-198D01*
G01*
X136401D02*
G03*
X136552Y342564I482J140D01*
G01*
X74499Y135594D02*
G03*
X74384Y134613I29J-501D01*
G01*
X353943Y342409D02*
X415749Y135358D01*
X353478Y343274D02*
X353478D01*
X135941Y343198D02*
X136452D01*
X135941Y342802D02*
X136401D01*
X74499Y135594D02*
X136552Y342564D01*
D54*
X161482Y125000D02*
D03*
X325228Y125300D02*
D03*
X136528Y279800D02*
D03*
X255626Y202402D02*
D03*
X249327D02*
D03*
X252477D02*
D03*
X160728Y188300D02*
D03*
X320328Y183200D02*
D03*
X281583Y187980D02*
D03*
X190334Y179000D02*
D03*
X297522Y179500D02*
D03*
X276071Y228827D02*
D03*
X274792Y223118D02*
D03*
Y219575D02*
D03*
Y216032D02*
D03*
X288670Y229909D02*
D03*
X281583D02*
D03*
X285126D02*
D03*
X180835Y212976D02*
D03*
X214734Y239900D02*
D03*
X243028Y218150D02*
D03*
X246178D02*
D03*
X252477D02*
D03*
X239878Y215000D02*
D03*
X243028D02*
D03*
X246178D02*
D03*
X249327D02*
D03*
X252477D02*
D03*
X233579Y211850D02*
D03*
X236729D02*
D03*
X239878D02*
D03*
X243028D02*
D03*
X246178D02*
D03*
X249327D02*
D03*
X252477D02*
D03*
X255626D02*
D03*
X236729Y208701D02*
D03*
X239878D02*
D03*
X243028D02*
D03*
X246178D02*
D03*
X249327D02*
D03*
X252477D02*
D03*
X255626D02*
D03*
X236729Y205551D02*
D03*
X239878D02*
D03*
X243028D02*
D03*
X246178D02*
D03*
X249327D02*
D03*
X252477D02*
D03*
X255626D02*
D03*
X233579Y202402D02*
D03*
X243028D02*
D03*
X246178D02*
D03*
X229528Y250000D02*
D03*
X240028Y181500D02*
D03*
X251528Y250500D02*
D03*
X309934Y240000D02*
D03*
X214934Y179000D02*
D03*
X181722Y239900D02*
D03*
X298122Y240000D02*
D03*
X276622D02*
D03*
X288434D02*
D03*
X174528Y208453D02*
D03*
X221528Y190500D02*
D03*
X290028Y274000D02*
D03*
X221528Y220800D02*
D03*
X211428Y290400D02*
D03*
X202428D02*
D03*
X282329Y202299D02*
D03*
X284027Y200602D02*
D03*
X330628Y204400D02*
D03*
X157928Y164100D02*
D03*
X184428Y179900D02*
D03*
Y177500D02*
D03*
X182328Y159400D02*
D03*
X167528Y161300D02*
D03*
X169928D02*
D03*
X317928Y219600D02*
D03*
X206028Y154700D02*
D03*
X257428Y164100D02*
D03*
X254328Y181800D02*
D03*
X226928Y206000D02*
D03*
X253628Y163700D02*
D03*
X246128Y165600D02*
D03*
X265728Y204200D02*
D03*
X268628Y214600D02*
D03*
X320428Y240400D02*
D03*
X335428Y234700D02*
D03*
X167228Y179100D02*
D03*
X194328Y199000D02*
D03*
X196528Y204600D02*
D03*
X194228Y202000D02*
D03*
X200028Y205100D02*
D03*
X202628Y209100D02*
D03*
X283528Y308800D02*
D03*
X301928Y198000D02*
D03*
X266328Y259000D02*
D03*
X253328Y124700D02*
D03*
X224828Y208500D02*
D03*
X283528Y256000D02*
D03*
X291528Y310800D02*
D03*
X299028Y265500D02*
D03*
X244528Y191000D02*
D03*
X225628Y192628D02*
D03*
X226126Y202402D02*
D03*
X225528Y240500D02*
D03*
X205528Y210000D02*
D03*
X279600Y270700D02*
D03*
X220528Y245500D02*
D03*
X245028Y241000D02*
D03*
X228600Y221400D02*
D03*
X311804Y257776D02*
D03*
X278028Y260000D02*
D03*
X290675Y262425D02*
D03*
X277028Y305000D02*
D03*
D55*
X329028Y193000D02*
D03*
X318928Y199600D02*
D03*
X329028Y186900D02*
D03*
X318928Y205600D02*
D03*
D56*
X232028Y318000D02*
D03*
X257028Y308000D02*
D03*
X252028Y318000D02*
D03*
X242028D02*
D03*
X247028Y308000D02*
D03*
X237028D02*
D03*
D57*
X224528Y283000D02*
D03*
X264528D02*
D03*
X362878Y257940D02*
D03*
X377497Y210124D02*
D03*
X127320Y254443D02*
D03*
X112702Y206628D02*
D03*
D58*
X344862Y259751D02*
D03*
X363573Y198548D02*
D03*
X145337Y256254D02*
D03*
X126626Y195051D02*
D03*
D59*
X355523Y235823D02*
D03*
X357862Y228172D02*
D03*
X366256Y234921D02*
D03*
X368595Y227271D02*
D03*
X360201Y220522D02*
D03*
X353185Y243473D02*
D03*
X363917Y242572D02*
D03*
X370934Y219620D02*
D03*
X127451Y242900D02*
D03*
X120434Y219949D02*
D03*
X128828Y213200D02*
D03*
X135845Y236151D02*
D03*
X125112Y235250D02*
D03*
X122773Y227599D02*
D03*
X133506Y228501D02*
D03*
X131167Y220850D02*
D03*
D60*
X277028Y322312D02*
D03*
X160728Y179300D02*
D03*
X320328Y174200D02*
D03*
X202922Y239900D02*
D03*
X193534D02*
D03*
X299028Y274000D02*
D03*
X221528Y229800D02*
D03*
X196028Y165900D02*
D03*
X292828Y163200D02*
D03*
X288428Y201300D02*
D03*
X283428Y299500D02*
D03*
X238900Y259400D02*
D03*
D61*
X187626Y188469D02*
D03*
X191170Y230398D02*
D03*
X187626D02*
D03*
X194713D02*
D03*
X180835Y216520D02*
D03*
Y220063D02*
D03*
Y223606D02*
D03*
X182115Y229315D02*
D03*
D62*
X191071Y218488D02*
D03*
D63*
X239878Y218150D02*
D03*
X249327D02*
D03*
D64*
X117040Y148532D02*
D03*
X147040D02*
D03*
X142040Y152469D02*
D03*
X122040D02*
D03*
X137040D02*
D03*
X132040Y148532D02*
D03*
X127040Y152469D02*
D03*
X192865Y148532D02*
D03*
X222865D02*
D03*
X217865Y152469D02*
D03*
X197865D02*
D03*
X212865D02*
D03*
X207865Y148532D02*
D03*
X202865Y152469D02*
D03*
X268691Y148532D02*
D03*
X298691D02*
D03*
X293691Y152469D02*
D03*
X273691D02*
D03*
X288691D02*
D03*
X283691Y148532D02*
D03*
X278691Y152469D02*
D03*
X344516Y148532D02*
D03*
X374516D02*
D03*
X369516Y152469D02*
D03*
X349516D02*
D03*
X364516D02*
D03*
X359516Y148532D02*
D03*
X354516Y152469D02*
D03*
D65*
X157552Y150500D02*
D03*
X106528D02*
D03*
X233377D02*
D03*
X182353D02*
D03*
X309203D02*
D03*
X258179D02*
D03*
X385028D02*
D03*
X334004D02*
D03*
D66*
X275528Y129500D02*
D03*
X295528D02*
D03*
X285528Y119500D02*
D03*
X193328Y258500D02*
D03*
X203328Y268500D02*
D03*
X183328D02*
D03*
D67*
X237028Y172000D02*
D03*
X247028D02*
D03*
X257028D02*
D03*
X159528Y288000D02*
D03*
Y298000D02*
D03*
Y308000D02*
D03*
Y318000D02*
D03*
X188528Y288000D02*
D03*
Y298000D02*
D03*
Y308000D02*
D03*
Y318000D02*
D03*
X303028Y287000D02*
D03*
Y297000D02*
D03*
Y307000D02*
D03*
Y317000D02*
D03*
X332028Y287000D02*
D03*
Y297000D02*
D03*
Y307000D02*
D03*
Y317000D02*
D03*
X239928Y125300D02*
D03*
X229928D02*
D03*
X219928D02*
D03*
X209928D02*
D03*
X199928D02*
D03*
X137728Y125800D02*
D03*
X147728D02*
D03*
X203528Y319500D02*
D03*
X213528D02*
D03*
X153528Y279500D02*
D03*
X163528D02*
D03*
X173528D02*
D03*
Y269500D02*
D03*
X163528D02*
D03*
X153528D02*
D03*
X143528D02*
D03*
X153528Y259500D02*
D03*
X163528D02*
D03*
X173528D02*
D03*
X143528Y309500D02*
D03*
Y319500D02*
D03*
Y329500D02*
D03*
X213528Y269500D02*
D03*
Y259500D02*
D03*
Y249500D02*
D03*
X203528D02*
D03*
X193528D02*
D03*
X183528D02*
D03*
X174328Y250800D02*
D03*
X333528Y279500D02*
D03*
X343528D02*
D03*
X353528D02*
D03*
X363528D02*
D03*
X333528Y269500D02*
D03*
X343528D02*
D03*
X333528Y259500D02*
D03*
X343528Y129500D02*
D03*
X353528D02*
D03*
X363528D02*
D03*
X123528Y179500D02*
D03*
X133528D02*
D03*
X143528D02*
D03*
X153528D02*
D03*
X123528Y169500D02*
D03*
X143528D02*
D03*
X153528D02*
D03*
X363128Y189500D02*
D03*
X359328Y172100D02*
D03*
X373528Y179500D02*
D03*
Y169500D02*
D03*
X338328Y171600D02*
D03*
X353528Y189500D02*
D03*
X373528D02*
D03*
X213528Y309500D02*
D03*
X343528Y329500D02*
D03*
Y319500D02*
D03*
Y309500D02*
D03*
D68*
X139849Y294500D02*
D03*
X350528Y294531D02*
D03*
X384418Y181000D02*
D03*
X105820D02*
D03*
D69*
X218128Y169600D02*
D03*
X281528Y205800D02*
D03*
X291628Y219100D02*
D03*
M02*
